<svg xmlns="http://www.w3.org/2000/svg" width="500" height="499" viewBox="0 0 500 499" fill="none">
<path fill-rule="evenodd" clip-rule="evenodd" d="M264.048 8.95383C184.288 -23.2892 84.1649 31.8634 114.711 169.321C118.423 186.022 130.579 198.261 142.712 180.351C160.53 154.047 237.743 46.2876 269.987 37.8028C284.733 33.9223 291.199 19.9299 264.048 8.95383ZM108.771 310.171C23.0731 279.625 -45.6558 156.593 62.9524 91.2582C85.3508 77.7842 84.9644 94.8052 82.4679 105.683C73.4261 145.079 99.3074 212.987 116.661 258.52C122.106 272.808 126.712 284.892 129.135 293.201C135.075 313.565 120.136 314.222 108.771 310.171ZM233.499 383.991C154.59 455.265 76.2463 423.062 72.2836 421.325C12.8906 395.298 -11.7158 320.353 5.25404 288.959C11.1937 277.928 17.9817 281.322 21.3757 285.565C32.2366 306.608 71.7201 326.01 90.1043 333.081C108.489 340.152 160.53 353.445 160.53 353.445L230.955 373.809C235.198 374.658 237.744 380.157 233.499 383.991ZM242.835 94.6522C331.927 0.468689 419.233 59.048 436.293 94.6522C455.808 135.38 443.93 140.471 418.474 135.38C405.729 132.831 368.096 133.048 331.136 133.26C294.28 133.472 258.094 133.68 247.926 131.138C231.804 127.107 220.914 117.825 242.835 94.6522ZM496.537 271.14C510.961 222.776 482.96 147.259 362.474 160.835C327.811 164.741 343.806 189.684 357.383 199.866C375.2 213.229 446.475 269.443 454.112 285.565C461.276 300.689 482.112 319.505 496.537 271.14ZM360.776 277.08C372.182 372.112 370.958 412.84 359.079 427.265C348.157 440.527 345.777 461.297 373.504 452.72C491.445 416.234 449.02 295.747 395.565 264.352C365.867 246.911 358.23 255.867 360.776 277.08ZM342.11 376.354C340.413 463.75 250.471 541.812 162.228 471.386C148.128 460.133 162.374 450.199 185.137 445.931C204.344 442.33 251.573 403.347 284.176 376.436L284.177 376.435C297.663 365.303 308.647 356.238 314.109 352.596C315.135 351.913 316.336 350.973 317.654 349.943L317.655 349.942C327.243 342.443 343.008 330.114 342.11 376.354ZM333.624 249.928C333.624 300.538 292.596 341.566 241.986 341.566C191.376 341.566 150.348 300.538 150.348 249.928C150.348 199.318 191.376 158.29 241.986 158.29C292.596 158.29 333.624 199.318 333.624 249.928ZM241.986 314.414C277.601 314.414 306.472 285.543 306.472 249.928C306.472 214.313 277.601 185.442 241.986 185.442C206.371 185.442 177.5 214.313 177.5 249.928C177.5 285.543 206.371 314.414 241.986 314.414ZM289.502 249.928C289.502 276.17 268.228 297.444 241.986 297.444C215.744 297.444 194.47 276.17 194.47 249.928C194.47 223.686 215.744 202.412 241.986 202.412C268.228 202.412 289.502 223.686 289.502 249.928ZM241.986 278.777C257.919 278.777 270.835 265.861 270.835 249.928C270.835 233.995 257.919 221.079 241.986 221.079C226.053 221.079 213.137 233.995 213.137 249.928C213.137 265.861 226.053 278.777 241.986 278.777ZM241.986 260.11C247.609 260.11 252.168 255.551 252.168 249.928C252.168 244.304 247.609 239.746 241.986 239.746C236.363 239.746 231.804 244.304 231.804 249.928C231.804 255.551 236.363 260.11 241.986 260.11Z" fill="#E5E5E5"/>
</svg>